<svg id="svg" version="1.1" xmlns="http://www.w3.org/2000/svg" xmlns:xlink="http://www.w3.org/1999/xlink" width="400" height="400" viewBox="0, 0, 400,400"><g id="svgg"><path id="path0" d="M224.080 88.080 C 223.816 88.344,223.600 88.796,223.600 89.085 C 223.600 89.374,223.441 89.923,223.247 90.305 C 222.603 91.570,221.987 93.105,220.076 98.200 C 218.286 102.974,213.589 115.283,213.209 116.200 C 213.026 116.640,212.302 118.530,211.600 120.400 C 210.044 124.545,209.829 125.103,209.254 126.500 C 208.394 128.584,208.075 129.407,207.200 131.800 C 206.717 133.120,206.135 134.650,205.907 135.200 C 205.679 135.750,205.337 136.605,205.146 137.100 C 204.956 137.595,204.632 138.405,204.426 138.900 C 204.220 139.395,202.139 144.840,199.802 151.000 C 197.465 157.160,195.359 162.650,195.123 163.200 C 194.606 164.403,194.437 164.840,192.800 169.200 C 192.098 171.070,191.361 173.005,191.162 173.500 C 190.963 173.995,190.637 174.805,190.438 175.300 C 190.239 175.795,189.502 177.730,188.800 179.600 C 187.527 182.991,187.135 183.997,186.424 185.700 C 186.217 186.195,185.030 189.300,183.785 192.600 C 179.863 202.995,178.352 206.972,177.970 207.900 C 177.767 208.395,177.420 209.250,177.200 209.800 C 176.980 210.350,176.596 211.295,176.346 211.900 C 175.708 213.450,175.352 214.391,174.800 216.000 C 174.218 217.693,173.629 219.160,173.153 220.095 C 172.959 220.477,172.800 220.974,172.800 221.199 C 172.800 221.424,172.460 222.372,172.045 223.304 C 171.630 224.237,170.747 226.440,170.083 228.200 C 167.895 234.001,163.547 245.385,163.209 246.200 C 163.026 246.640,162.302 248.530,161.600 250.400 C 160.898 252.270,160.161 254.205,159.962 254.700 C 159.763 255.195,159.420 256.050,159.200 256.600 C 158.980 257.150,158.638 258.005,158.439 258.500 C 158.240 258.995,157.683 260.480,157.200 261.800 C 156.012 265.047,155.464 266.463,154.490 268.800 C 154.261 269.350,153.357 271.690,152.481 274.000 C 149.701 281.328,145.550 292.170,145.206 293.000 C 145.024 293.440,144.121 295.780,143.200 298.200 C 142.279 300.620,141.362 303.005,141.162 303.500 C 140.963 303.995,140.637 304.805,140.437 305.300 C 140.237 305.795,139.587 307.460,138.992 309.000 C 138.397 310.540,137.821 312.025,137.713 312.300 C 137.556 312.695,140.750 312.800,152.888 312.800 L 168.263 312.800 169.560 309.300 C 170.755 306.078,174.386 296.610,175.237 294.500 C 175.437 294.005,175.780 293.150,176.000 292.600 C 176.220 292.050,176.562 291.195,176.761 290.700 C 176.960 290.205,177.517 288.720,178.000 287.400 C 179.040 284.557,179.354 283.735,179.908 282.400 C 180.346 281.347,181.103 279.362,185.403 268.000 C 186.860 264.150,188.244 260.550,188.480 260.000 C 188.997 258.789,189.173 258.334,190.800 254.000 C 191.502 252.130,192.239 250.195,192.438 249.700 C 192.637 249.205,192.963 248.395,193.162 247.900 C 193.361 247.405,194.098 245.470,194.800 243.600 C 196.363 239.437,196.583 238.865,197.109 237.600 C 197.338 237.050,198.246 234.710,199.128 232.400 C 203.067 222.082,206.161 213.953,207.272 211.000 C 208.772 207.014,208.983 206.466,209.546 205.100 C 209.796 204.495,210.156 203.595,210.346 203.100 C 210.537 202.605,210.879 201.750,211.106 201.200 C 211.333 200.650,211.736 199.570,212.000 198.800 C 212.474 197.420,212.839 196.469,213.574 194.700 C 213.780 194.205,215.146 190.650,216.611 186.800 C 220.633 176.225,223.214 169.513,223.684 168.400 C 224.255 167.051,224.628 166.065,225.200 164.400 C 225.464 163.630,225.843 162.595,226.040 162.100 C 226.238 161.605,226.556 160.795,226.746 160.300 C 226.937 159.805,227.321 158.860,227.600 158.200 C 228.231 156.708,228.498 156.012,229.600 153.000 C 230.083 151.680,230.665 150.150,230.893 149.600 C 231.715 147.615,232.009 146.851,235.804 136.800 C 237.923 131.190,239.824 126.195,240.028 125.700 C 240.786 123.866,241.153 122.922,242.400 119.600 C 243.102 117.730,243.839 115.795,244.038 115.300 C 244.237 114.805,244.580 113.950,244.800 113.400 C 245.020 112.850,245.363 111.995,245.562 111.500 C 245.761 111.005,246.498 109.070,247.200 107.200 C 247.902 105.330,248.627 103.440,248.812 103.000 C 250.001 100.168,254.400 88.383,254.400 88.030 C 254.400 87.383,224.728 87.432,224.080 88.080 M271.430 134.703 C 271.304 134.830,271.200 142.709,271.200 152.212 L 271.200 169.491 278.100 172.183 C 281.895 173.663,285.540 175.113,286.200 175.404 C 286.860 175.696,288.210 176.236,289.200 176.604 C 290.190 176.973,291.450 177.462,292.000 177.691 C 292.550 177.920,293.360 178.239,293.800 178.400 C 294.240 178.561,295.140 178.921,295.800 179.200 C 296.949 179.686,298.068 180.140,299.800 180.823 C 300.240 180.996,305.550 183.056,311.600 185.400 C 317.650 187.744,323.005 189.828,323.500 190.031 C 323.995 190.234,324.850 190.580,325.400 190.800 C 325.950 191.020,326.895 191.404,327.500 191.654 C 328.713 192.154,330.074 192.700,331.600 193.300 C 332.150 193.516,332.913 193.852,333.295 194.047 C 333.677 194.241,334.180 194.400,334.414 194.400 C 334.648 194.400,335.584 194.760,336.494 195.200 C 337.405 195.640,338.389 196.000,338.681 196.000 C 338.972 196.000,339.523 196.165,339.905 196.367 C 341.345 197.129,344.407 198.400,344.801 198.400 C 345.026 198.400,345.523 198.559,345.905 198.753 C 346.896 199.257,348.241 199.804,351.100 200.867 C 353.478 201.751,354.655 203.200,352.995 203.200 C 352.662 203.200,352.077 203.359,351.695 203.553 C 350.960 203.927,349.201 204.676,347.700 205.254 C 345.063 206.269,342.677 207.254,341.905 207.647 C 341.523 207.841,341.026 208.000,340.801 208.000 C 340.576 208.000,339.538 208.378,338.496 208.840 C 335.814 210.028,336.396 209.796,321.000 215.812 C 313.300 218.820,306.237 221.623,305.304 222.041 C 304.372 222.458,303.461 222.800,303.279 222.800 C 303.098 222.800,302.205 223.160,301.294 223.600 C 300.384 224.040,299.448 224.400,299.214 224.400 C 298.980 224.400,298.477 224.559,298.095 224.753 C 297.360 225.127,295.601 225.876,294.100 226.454 C 293.605 226.644,292.795 226.956,292.300 227.146 C 291.397 227.494,289.694 228.204,288.200 228.856 C 287.760 229.048,283.800 230.621,279.400 232.350 L 271.400 235.496 271.296 253.148 C 271.239 262.857,271.337 270.800,271.514 270.800 C 271.796 270.800,276.289 268.862,282.600 266.017 C 283.700 265.521,285.230 264.846,286.000 264.516 C 286.770 264.187,288.165 263.576,289.100 263.158 C 290.035 262.741,291.565 262.059,292.500 261.643 C 293.435 261.226,295.190 260.434,296.400 259.881 C 300.872 257.840,303.228 256.800,303.376 256.800 C 303.460 256.800,304.850 256.190,306.464 255.444 C 308.970 254.287,315.057 251.576,321.500 248.747 C 322.435 248.336,324.055 247.621,325.100 247.158 C 326.145 246.695,327.630 246.043,328.400 245.710 C 329.170 245.377,330.700 244.693,331.800 244.190 C 332.900 243.687,334.700 242.878,335.800 242.392 C 339.230 240.877,341.328 239.943,343.400 239.007 C 344.500 238.511,348.550 236.721,352.400 235.030 C 356.250 233.339,359.940 231.715,360.600 231.420 C 361.260 231.126,362.700 230.488,363.800 230.004 C 364.900 229.520,366.790 228.672,368.000 228.119 C 371.227 226.645,373.692 225.543,374.600 225.169 C 375.040 224.987,376.993 224.110,378.940 223.219 C 380.887 222.329,382.546 221.600,382.628 221.600 C 382.709 221.600,383.817 221.123,385.088 220.540 C 386.360 219.957,389.110 218.735,391.200 217.825 C 393.290 216.914,395.405 215.945,395.900 215.671 L 396.800 215.172 396.800 202.581 L 396.800 189.989 394.500 188.951 C 390.701 187.237,390.140 186.990,381.000 182.998 C 376.160 180.883,371.300 178.733,370.200 178.220 C 369.100 177.706,367.480 176.978,366.600 176.601 C 365.720 176.225,364.235 175.576,363.300 175.158 C 362.365 174.741,360.835 174.059,359.900 173.643 C 358.965 173.226,357.210 172.433,356.000 171.881 C 353.452 170.717,352.354 170.232,344.097 166.632 C 340.740 165.168,336.600 163.339,334.897 162.569 C 333.194 161.798,331.440 161.013,331.000 160.825 C 330.560 160.638,329.210 160.034,328.000 159.485 C 326.790 158.936,325.080 158.175,324.200 157.795 C 323.320 157.415,321.700 156.695,320.600 156.195 C 319.500 155.695,317.970 155.018,317.200 154.690 C 316.430 154.361,314.900 153.689,313.800 153.195 C 312.700 152.701,307.930 150.603,303.200 148.534 C 298.470 146.465,293.835 144.418,292.900 143.986 C 291.965 143.554,290.390 142.840,289.400 142.400 C 288.410 141.960,286.790 141.240,285.800 140.800 C 284.810 140.360,283.235 139.659,282.300 139.242 C 281.365 138.824,279.970 138.209,279.200 137.874 C 278.430 137.538,276.419 136.636,274.730 135.869 C 273.042 135.101,271.557 134.577,271.430 134.703 M120.400 136.268 C 118.750 137.053,116.275 138.214,114.900 138.848 C 108.450 141.820,106.808 142.583,104.200 143.819 C 99.269 146.155,93.530 148.800,93.392 148.800 C 93.259 148.800,89.655 150.446,84.000 153.090 C 82.350 153.862,79.830 155.032,78.400 155.692 C 76.970 156.351,74.270 157.611,72.400 158.493 C 70.530 159.374,68.100 160.511,67.000 161.019 C 65.900 161.527,63.054 162.856,60.676 163.972 C 58.298 165.087,56.293 166.000,56.221 166.000 C 56.149 166.000,54.135 166.916,51.745 168.036 C 49.355 169.157,46.770 170.348,46.000 170.684 C 45.230 171.020,42.980 172.064,41.000 173.002 C 39.020 173.941,36.320 175.202,35.000 175.804 C 33.680 176.405,31.340 177.488,29.800 178.210 C 26.997 179.524,25.895 180.031,16.200 184.469 C 13.340 185.778,9.425 187.594,7.500 188.504 L 4.000 190.159 4.000 202.834 L 4.000 215.509 5.300 216.122 C 8.039 217.415,13.978 220.157,18.200 222.078 C 20.620 223.180,24.130 224.803,26.000 225.687 C 27.870 226.570,30.300 227.703,31.400 228.204 C 32.500 228.705,34.773 229.756,36.451 230.539 C 39.997 232.195,42.570 233.382,50.000 236.788 C 52.970 238.150,56.525 239.790,57.900 240.432 C 59.275 241.074,61.525 242.119,62.900 242.753 C 65.583 243.991,70.319 246.195,74.200 248.013 C 75.520 248.631,78.850 250.163,81.600 251.418 C 84.350 252.673,88.310 254.501,90.400 255.481 C 92.490 256.460,95.190 257.720,96.400 258.280 C 97.610 258.840,99.860 259.887,101.400 260.607 C 102.940 261.327,105.460 262.495,107.000 263.202 C 111.563 265.297,113.546 266.220,118.532 268.570 C 121.135 269.797,123.522 270.800,123.836 270.800 C 124.325 270.800,124.393 268.206,124.304 252.922 L 124.200 235.044 118.600 232.797 C 115.520 231.561,112.303 230.246,111.451 229.875 C 110.599 229.504,109.742 229.200,109.546 229.200 C 109.350 229.200,108.877 229.035,108.495 228.833 C 106.892 227.985,103.971 226.800,103.484 226.800 C 103.196 226.800,102.789 226.647,102.580 226.460 C 102.371 226.273,101.390 225.808,100.400 225.427 C 99.410 225.046,97.970 224.461,97.200 224.126 C 96.430 223.792,95.395 223.357,94.900 223.159 C 92.613 222.246,91.750 221.881,91.105 221.553 C 90.723 221.359,90.226 221.200,90.001 221.200 C 89.776 221.200,88.738 220.822,87.696 220.360 C 86.653 219.898,85.440 219.378,85.000 219.203 C 77.900 216.388,65.614 211.451,64.400 210.925 C 63.630 210.591,62.595 210.157,62.100 209.959 C 59.799 209.041,59.125 208.769,58.100 208.346 C 57.495 208.097,56.550 207.713,56.000 207.493 C 55.450 207.273,54.550 206.913,54.000 206.693 C 53.450 206.473,52.640 206.137,52.200 205.947 C 51.760 205.756,50.320 205.167,49.000 204.638 C 45.645 203.293,45.764 202.841,49.893 201.240 C 51.822 200.492,54.210 199.529,55.200 199.100 C 56.190 198.671,57.360 198.176,57.800 198.000 C 58.240 197.824,59.453 197.302,60.496 196.840 C 61.538 196.378,62.485 196.000,62.600 196.000 C 62.715 196.000,63.662 195.622,64.704 195.160 C 65.747 194.698,66.960 194.182,67.400 194.014 C 68.482 193.599,69.918 193.004,71.600 192.274 C 72.370 191.939,73.810 191.354,74.800 190.973 C 75.790 190.592,76.771 190.127,76.980 189.940 C 77.189 189.753,77.596 189.600,77.884 189.600 C 78.173 189.600,79.172 189.250,80.104 188.821 C 81.037 188.393,83.870 187.202,86.400 186.174 C 88.930 185.146,92.980 183.500,95.400 182.517 C 97.820 181.534,100.430 180.457,101.200 180.124 C 102.630 179.505,103.704 179.068,105.300 178.454 C 106.729 177.903,108.974 176.966,112.600 175.407 C 113.480 175.028,114.605 174.557,115.100 174.359 C 118.254 173.100,117.745 173.313,122.100 171.436 L 124.400 170.444 124.400 152.622 C 124.400 138.620,124.293 134.804,123.900 134.820 C 123.625 134.831,122.050 135.483,120.400 136.268 " stroke="none" fill="#9bf2e2" fill-rule="evenodd"></path><path id="path1" d="M0.000 200.000 L 0.000 400.000 200.000 400.000 L 400.000 400.000 400.000 200.000 L 400.000 0.000 200.000 0.000 L 0.000 0.000 0.000 200.000 M255.017 88.249 C 254.868 89.046,254.588 89.991,254.395 90.349 C 254.040 91.007,251.930 96.546,249.359 103.568 C 248.587 105.676,247.786 107.805,247.578 108.300 C 247.128 109.371,246.531 110.860,246.054 112.100 C 245.615 113.239,245.024 114.717,244.494 116.000 C 244.267 116.550,243.864 117.630,243.600 118.400 C 243.336 119.170,242.957 120.205,242.760 120.700 C 242.562 121.195,242.220 122.050,242.000 122.600 C 241.780 123.150,241.420 124.050,241.200 124.600 C 240.980 125.150,240.638 126.005,240.440 126.500 C 240.243 126.995,239.864 128.030,239.600 128.800 C 239.036 130.442,238.664 131.427,238.087 132.800 C 237.716 133.685,235.787 138.759,231.929 149.000 C 230.723 152.203,230.394 153.044,229.546 155.100 C 229.297 155.705,228.937 156.605,228.746 157.100 C 228.073 158.849,227.503 160.208,227.153 160.895 C 226.959 161.277,226.800 161.864,226.800 162.200 C 226.800 162.536,226.641 163.123,226.447 163.505 C 226.252 163.887,225.916 164.650,225.700 165.200 C 225.484 165.750,225.103 166.695,224.854 167.300 C 224.604 167.905,224.196 168.895,223.946 169.500 C 223.012 171.766,222.811 172.290,221.441 176.032 C 219.808 180.492,216.907 188.197,216.371 189.500 C 215.594 191.386,215.251 192.273,214.400 194.600 C 213.917 195.920,213.335 197.450,213.107 198.000 C 212.879 198.550,212.561 199.360,212.400 199.800 C 211.724 201.646,210.443 204.731,209.953 205.695 C 209.759 206.077,209.600 206.752,209.600 207.195 C 209.600 207.638,209.420 208.000,209.200 208.000 C 208.980 208.000,208.800 208.362,208.800 208.805 C 208.800 209.248,208.641 209.923,208.447 210.305 C 208.252 210.687,207.916 211.450,207.700 212.000 C 207.484 212.550,207.120 213.450,206.892 214.000 C 206.663 214.550,205.935 216.440,205.274 218.200 C 202.441 225.742,199.513 233.466,199.170 234.300 C 198.966 234.795,198.596 235.695,198.346 236.300 C 197.741 237.768,197.439 238.561,196.400 241.400 C 195.917 242.720,195.335 244.250,195.107 244.800 C 194.879 245.350,194.561 246.160,194.400 246.600 C 194.239 247.040,193.903 247.895,193.654 248.500 C 193.404 249.105,192.999 250.095,192.753 250.700 C 192.508 251.305,192.148 252.113,191.953 252.495 C 191.759 252.877,191.600 253.464,191.600 253.800 C 191.600 254.136,191.420 254.768,191.200 255.205 C 190.980 255.642,190.620 256.358,190.400 256.795 C 190.180 257.232,190.000 257.774,190.000 257.999 C 190.000 258.224,189.659 259.172,189.243 260.104 C 188.826 261.037,187.821 263.600,187.010 265.800 C 184.870 271.600,182.948 276.698,182.107 278.800 C 181.887 279.350,181.527 280.250,181.307 280.800 C 181.087 281.350,180.721 282.250,180.494 282.800 C 180.267 283.350,179.864 284.430,179.600 285.200 C 179.120 286.598,178.801 287.426,177.946 289.500 C 177.249 291.192,176.722 292.521,176.400 293.400 C 176.239 293.840,175.921 294.650,175.694 295.200 C 175.467 295.750,175.064 296.830,174.800 297.600 C 174.210 299.319,173.856 300.247,173.200 301.800 C 172.444 303.589,172.207 304.196,170.348 309.100 L 168.643 313.600 152.945 313.600 C 143.650 313.600,137.153 313.448,137.016 313.226 C 136.783 312.848,137.572 310.453,139.200 306.600 C 139.479 305.940,139.863 304.995,140.054 304.500 C 140.244 304.005,140.562 303.195,140.760 302.700 C 140.957 302.205,141.336 301.170,141.600 300.400 C 141.864 299.630,142.267 298.550,142.494 298.000 C 142.721 297.450,143.063 296.595,143.254 296.100 C 143.444 295.605,143.756 294.795,143.946 294.300 C 144.396 293.131,144.989 291.652,145.507 290.400 C 145.735 289.850,146.285 288.410,146.729 287.200 C 148.063 283.562,152.037 273.072,152.487 272.000 C 152.988 270.808,153.055 270.633,155.200 265.000 C 157.310 259.457,157.397 259.232,157.946 257.900 C 158.366 256.882,158.569 256.378,159.560 253.900 C 159.757 253.405,160.136 252.370,160.400 251.600 C 160.664 250.830,161.067 249.750,161.294 249.200 C 162.318 246.720,162.672 245.805,164.542 240.800 C 166.843 234.640,170.028 226.278,170.484 225.200 C 171.425 222.975,172.139 221.126,172.800 219.200 C 173.064 218.430,173.443 217.395,173.640 216.900 C 173.838 216.405,174.180 215.550,174.400 215.000 C 174.620 214.450,174.956 213.595,175.146 213.100 C 175.337 212.605,175.697 211.705,175.946 211.100 C 176.366 210.082,176.569 209.578,177.560 207.100 C 177.757 206.605,178.136 205.570,178.400 204.800 C 178.990 203.081,179.344 202.153,180.000 200.600 C 180.816 198.668,180.435 199.669,186.480 183.600 C 188.245 178.908,188.477 178.312,189.200 176.600 C 189.479 175.940,189.863 174.995,190.054 174.500 C 190.244 174.005,190.562 173.195,190.760 172.700 C 190.957 172.205,191.336 171.170,191.600 170.400 C 191.864 169.630,192.267 168.550,192.494 168.000 C 193.140 166.436,193.681 165.072,194.000 164.200 C 194.161 163.760,194.521 162.860,194.800 162.200 C 195.418 160.738,195.692 160.027,196.729 157.200 C 197.822 154.220,201.987 143.195,202.396 142.200 C 202.577 141.760,203.479 139.420,204.400 137.000 C 205.321 134.580,206.238 132.195,206.438 131.700 C 206.637 131.205,206.956 130.395,207.146 129.900 C 207.337 129.405,207.697 128.505,207.946 127.900 C 208.196 127.295,208.601 126.305,208.847 125.700 C 209.092 125.095,209.452 124.287,209.647 123.905 C 209.841 123.523,210.000 122.936,210.000 122.600 C 210.000 122.264,210.159 121.677,210.353 121.295 C 211.050 119.925,211.702 118.289,214.216 111.600 C 216.600 105.257,219.949 96.473,220.431 95.300 C 220.634 94.805,220.956 93.995,221.146 93.500 C 221.337 93.005,221.679 92.150,221.906 91.600 C 222.133 91.050,222.548 89.970,222.827 89.200 C 223.749 86.656,222.740 86.800,239.693 86.800 L 255.289 86.800 255.017 88.249 M125.200 152.429 L 125.200 170.810 122.900 171.847 C 121.635 172.416,120.240 173.020,119.800 173.188 C 117.486 174.070,114.809 175.187,113.905 175.647 C 113.523 175.841,112.938 176.000,112.605 176.000 C 112.272 176.000,112.000 176.180,112.000 176.400 C 112.000 176.620,111.728 176.800,111.395 176.800 C 111.062 176.800,110.477 176.959,110.095 177.153 C 109.198 177.610,106.601 178.693,104.200 179.614 C 103.760 179.782,102.547 180.298,101.504 180.760 C 100.462 181.222,99.515 181.600,99.400 181.600 C 99.285 181.600,98.428 181.941,97.496 182.359 C 96.563 182.776,94.180 183.776,92.200 184.582 C 88.891 185.929,86.535 186.903,83.400 188.222 C 79.550 189.842,76.997 190.800,76.531 190.800 C 76.239 190.800,76.000 190.980,76.000 191.200 C 76.000 191.420,75.728 191.600,75.395 191.600 C 75.062 191.600,74.477 191.759,74.095 191.953 C 73.395 192.309,71.966 192.908,70.300 193.543 C 69.805 193.732,68.618 194.272,67.662 194.743 C 66.706 195.214,65.759 195.600,65.558 195.600 C 65.356 195.600,64.338 195.978,63.296 196.440 C 62.253 196.902,61.040 197.423,60.600 197.599 C 60.160 197.775,59.170 198.191,58.400 198.525 C 57.630 198.859,54.885 199.976,52.300 201.008 C 46.684 203.249,46.742 203.065,51.101 204.760 C 53.026 205.508,55.410 206.471,56.400 206.900 C 58.219 207.688,59.260 208.115,60.900 208.746 C 61.395 208.937,62.250 209.273,62.800 209.493 C 63.350 209.713,64.250 210.073,64.800 210.293 C 65.350 210.513,66.250 210.873,66.800 211.093 C 67.350 211.313,68.250 211.673,68.800 211.893 C 70.427 212.544,71.713 213.080,73.200 213.729 C 73.970 214.065,77.641 215.528,81.358 216.979 C 85.075 218.430,88.765 219.902,89.558 220.249 C 91.241 220.987,92.640 221.568,93.900 222.054 C 94.395 222.244,95.205 222.556,95.700 222.746 C 96.195 222.937,97.095 223.297,97.700 223.546 C 98.305 223.796,99.205 224.162,99.700 224.359 C 101.248 224.977,103.752 226.064,104.961 226.644 C 105.600 226.950,106.284 227.200,106.481 227.200 C 106.678 227.200,107.584 227.560,108.494 228.000 C 109.405 228.440,110.298 228.800,110.479 228.800 C 110.661 228.800,111.662 229.178,112.704 229.640 C 114.966 230.642,115.009 230.660,120.600 232.904 L 125.000 234.671 125.104 253.011 C 125.163 263.346,125.053 271.507,124.852 271.708 C 124.645 271.915,122.876 271.301,120.603 270.232 C 118.461 269.224,116.650 268.400,116.578 268.400 C 116.390 268.400,104.497 262.832,100.244 260.752 C 98.948 260.118,97.643 259.600,97.344 259.600 C 97.045 259.600,96.800 259.420,96.800 259.200 C 96.800 258.980,96.547 258.800,96.238 258.800 C 95.929 258.800,94.984 258.448,94.138 258.017 C 92.525 257.195,89.642 255.860,82.000 252.394 C 76.023 249.683,72.065 247.841,68.596 246.160 C 67.055 245.412,65.570 244.800,65.296 244.800 C 65.023 244.800,64.800 244.620,64.800 244.400 C 64.800 244.180,64.555 244.000,64.256 244.000 C 63.957 244.000,62.652 243.482,61.356 242.850 C 60.060 242.217,58.190 241.327,57.200 240.872 C 56.210 240.417,53.454 239.134,51.076 238.022 C 48.698 236.910,46.693 236.000,46.621 236.000 C 46.549 236.000,44.535 235.084,42.145 233.964 C 36.372 231.259,33.354 229.855,30.100 228.358 C 28.615 227.675,26.050 226.486,24.400 225.715 C 22.750 224.944,20.680 223.984,19.800 223.582 C 18.920 223.180,16.256 221.946,13.881 220.839 C 11.506 219.733,8.446 218.339,7.081 217.743 C 2.849 215.891,3.200 217.238,3.200 202.870 C 3.200 189.890,3.329 188.800,4.870 188.800 C 5.061 188.800,6.765 188.068,8.658 187.173 C 12.215 185.491,15.537 183.961,19.000 182.410 C 23.085 180.582,27.045 178.743,28.538 177.983 C 29.384 177.552,30.329 177.200,30.638 177.200 C 30.947 177.200,31.200 177.020,31.200 176.800 C 31.200 176.580,31.445 176.400,31.744 176.400 C 32.043 176.400,33.348 175.879,34.644 175.241 C 37.081 174.043,40.951 172.224,45.800 169.998 C 47.340 169.291,49.500 168.298,50.600 167.791 C 52.958 166.706,57.311 164.716,60.400 163.312 C 63.751 161.789,67.014 160.272,71.200 158.290 C 73.290 157.300,75.990 156.041,77.200 155.492 C 78.410 154.942,80.930 153.774,82.800 152.896 C 84.670 152.017,88.090 150.444,90.400 149.399 C 96.505 146.639,99.497 145.252,102.156 143.952 C 103.452 143.318,104.757 142.800,105.056 142.800 C 105.355 142.800,105.600 142.620,105.600 142.400 C 105.600 142.180,105.865 142.000,106.188 142.000 C 106.511 142.000,107.417 141.640,108.200 141.200 C 108.983 140.760,109.889 140.400,110.212 140.400 C 110.535 140.400,110.800 140.220,110.800 140.000 C 110.800 139.780,111.053 139.600,111.362 139.600 C 111.671 139.600,112.616 139.243,113.462 138.806 C 118.529 136.192,124.467 133.633,124.900 133.878 C 125.065 133.971,125.200 142.319,125.200 152.429 M274.133 134.847 C 278.742 136.852,280.463 137.613,282.800 138.681 C 284.890 139.635,286.042 140.152,290.200 142.000 C 291.190 142.440,292.810 143.160,293.800 143.600 C 294.790 144.040,296.410 144.760,297.400 145.200 C 298.390 145.640,299.965 146.350,300.900 146.778 C 301.835 147.205,304.940 148.566,307.800 149.802 C 310.660 151.038,313.540 152.289,314.200 152.582 C 314.860 152.876,316.300 153.512,317.400 153.996 C 318.500 154.480,320.390 155.328,321.600 155.881 C 323.690 156.835,324.842 157.352,329.000 159.200 C 329.990 159.640,331.565 160.341,332.500 160.758 C 333.435 161.176,334.830 161.787,335.600 162.116 C 337.280 162.835,338.964 163.577,345.800 166.604 C 348.660 167.871,351.810 169.260,352.800 169.691 C 353.790 170.123,355.590 170.928,356.800 171.481 C 358.890 172.435,360.042 172.952,364.200 174.800 C 365.190 175.240,366.810 175.960,367.800 176.400 C 368.790 176.840,370.410 177.560,371.400 178.000 C 372.390 178.440,373.965 179.141,374.900 179.558 C 375.835 179.976,377.230 180.584,378.000 180.911 C 380.397 181.928,382.090 182.679,385.336 184.165 C 387.060 184.954,388.557 185.600,388.661 185.600 C 388.850 185.600,392.948 187.464,395.600 188.756 L 397.000 189.439 397.105 202.671 L 397.211 215.904 395.905 216.514 C 395.187 216.849,393.520 217.575,392.200 218.127 C 390.880 218.679,388.360 219.783,386.600 220.582 C 384.840 221.380,383.040 222.188,382.600 222.377 C 382.160 222.567,380.596 223.279,379.125 223.961 C 377.654 224.642,376.169 225.200,375.825 225.200 C 375.481 225.200,375.200 225.380,375.200 225.600 C 375.200 225.820,374.947 226.000,374.638 226.000 C 374.329 226.000,373.384 226.355,372.538 226.789 C 371.692 227.223,370.010 228.013,368.800 228.545 C 365.842 229.843,363.037 231.092,360.488 232.245 C 359.327 232.770,358.308 233.200,358.224 233.200 C 358.140 233.200,356.660 233.846,354.936 234.635 C 353.211 235.425,351.260 236.306,350.600 236.593 C 349.940 236.880,348.545 237.495,347.500 237.958 C 346.455 238.421,344.745 239.179,343.700 239.642 C 342.655 240.105,341.170 240.757,340.400 241.090 C 339.630 241.423,338.010 242.146,336.800 242.697 C 332.984 244.433,330.228 245.672,329.400 246.023 C 328.960 246.209,327.007 247.090,325.060 247.981 C 323.113 248.871,321.453 249.600,321.370 249.600 C 321.288 249.600,320.091 250.114,318.710 250.741 C 317.330 251.369,315.030 252.382,313.600 252.993 C 311.132 254.047,309.853 254.616,304.500 257.043 C 302.296 258.042,300.962 258.639,297.000 260.400 C 292.842 262.248,291.690 262.765,289.600 263.719 C 288.390 264.272,286.590 265.081,285.600 265.516 C 274.687 270.313,271.444 271.626,270.964 271.442 C 270.490 271.260,270.400 268.356,270.400 253.258 L 270.400 235.291 271.700 234.680 C 272.415 234.343,274.710 233.406,276.800 232.597 C 278.890 231.789,281.005 230.964,281.500 230.764 C 281.995 230.564,282.850 230.220,283.400 230.000 C 283.950 229.780,284.850 229.420,285.400 229.200 C 285.950 228.980,286.850 228.620,287.400 228.400 C 287.950 228.180,288.805 227.844,289.300 227.654 C 289.795 227.463,290.695 227.103,291.300 226.854 C 291.905 226.604,292.895 226.196,293.500 225.946 C 294.900 225.369,296.354 224.788,297.500 224.346 C 297.995 224.156,298.805 223.844,299.300 223.654 C 301.889 222.657,304.388 221.615,305.295 221.153 C 305.677 220.959,306.174 220.800,306.399 220.800 C 306.624 220.800,307.572 220.458,308.504 220.039 C 309.437 219.621,313.080 218.163,316.600 216.800 C 320.120 215.438,323.540 214.091,324.200 213.808 C 324.860 213.525,326.030 213.071,326.800 212.800 C 327.570 212.528,328.920 211.991,329.800 211.606 C 330.680 211.222,332.120 210.667,333.000 210.372 C 333.880 210.078,334.771 209.693,334.980 209.518 C 335.189 209.343,335.684 209.200,336.080 209.200 C 336.476 209.200,336.800 209.020,336.800 208.800 C 336.800 208.580,337.126 208.400,337.525 208.400 C 337.924 208.400,338.995 208.040,339.906 207.600 C 340.816 207.160,341.716 206.800,341.906 206.800 C 342.095 206.800,342.959 206.466,343.825 206.057 C 344.691 205.649,346.974 204.704,348.899 203.957 C 353.243 202.272,353.409 202.595,346.897 200.060 C 343.874 198.882,340.860 197.682,340.200 197.392 C 339.540 197.103,338.190 196.564,337.200 196.196 C 336.210 195.827,334.995 195.362,334.500 195.163 C 334.005 194.963,333.195 194.644,332.700 194.454 C 332.205 194.263,331.260 193.879,330.600 193.600 C 329.282 193.043,327.884 192.479,326.500 191.946 C 326.005 191.756,325.195 191.444,324.700 191.254 C 324.205 191.063,323.350 190.716,322.800 190.483 C 322.250 190.250,317.750 188.500,312.800 186.595 C 303.067 182.850,302.156 182.488,301.105 181.953 C 300.723 181.759,300.226 181.600,300.001 181.600 C 299.776 181.600,298.738 181.222,297.696 180.760 C 296.653 180.298,295.350 179.737,294.800 179.513 C 294.250 179.290,293.487 178.948,293.105 178.753 C 292.723 178.559,292.220 178.400,291.986 178.400 C 291.752 178.400,290.816 178.040,289.906 177.600 C 288.995 177.160,287.924 176.800,287.525 176.800 C 287.126 176.800,286.800 176.620,286.800 176.400 C 286.800 176.180,286.451 176.000,286.024 176.000 C 285.597 176.000,285.136 175.820,285.000 175.600 C 284.864 175.380,284.401 175.200,283.971 175.200 C 283.541 175.200,282.877 175.041,282.495 174.847 C 282.113 174.652,281.350 174.316,280.800 174.100 C 280.250 173.884,279.305 173.503,278.700 173.254 C 277.682 172.834,277.178 172.631,274.700 171.640 C 274.205 171.443,273.170 171.048,272.400 170.763 C 271.630 170.478,270.868 170.055,270.706 169.823 C 270.339 169.295,270.301 134.232,270.667 133.867 C 271.042 133.491,270.966 133.469,274.133 134.847 " stroke="none" fill="#040c0c" fill-rule="evenodd"></path><path id="path2" d="M223.680 87.280 C 223.416 87.544,223.205 87.949,223.212 88.180 C 223.219 88.411,223.408 88.285,223.632 87.900 C 224.009 87.253,225.193 87.200,239.391 87.200 C 253.674 87.200,254.754 87.249,254.924 87.900 C 255.062 88.427,255.119 88.377,255.154 87.700 L 255.200 86.800 239.680 86.800 C 228.142 86.800,224.037 86.923,223.680 87.280 M218.053 101.453 C 217.129 103.793,216.440 105.773,216.520 105.854 C 216.601 105.934,217.423 104.086,218.347 101.747 C 219.271 99.407,219.960 97.427,219.880 97.346 C 219.799 97.266,218.977 99.114,218.053 101.453 M248.850 103.850 C 248.373 105.096,248.050 106.184,248.133 106.266 C 248.215 106.349,248.673 105.396,249.150 104.150 C 249.627 102.904,249.950 101.816,249.867 101.734 C 249.785 101.651,249.327 102.604,248.850 103.850 M122.986 134.436 C 122.114 134.863,121.760 135.097,122.200 134.955 C 122.640 134.813,123.409 134.609,123.908 134.500 L 124.816 134.304 124.708 152.714 C 124.649 162.839,124.735 171.040,124.900 170.938 C 125.301 170.690,125.287 134.101,124.886 133.853 C 124.713 133.746,123.858 134.008,122.986 134.436 M204.267 137.308 C 203.460 139.347,202.809 141.192,202.820 141.408 C 202.831 141.624,203.559 140.022,204.437 137.850 C 205.315 135.677,205.966 133.833,205.884 133.750 C 205.802 133.668,205.074 135.269,204.267 137.308 M270.667 133.867 C 270.333 134.200,270.310 168.901,270.643 169.767 C 270.776 170.115,271.082 170.400,271.323 170.400 C 271.615 170.400,271.601 170.241,271.280 169.920 C 270.768 169.408,270.545 134.788,271.051 134.283 C 271.189 134.145,271.936 134.297,272.712 134.621 C 273.488 134.945,274.193 135.141,274.278 135.055 C 274.406 134.928,271.469 133.600,271.059 133.600 C 270.990 133.600,270.813 133.720,270.667 133.867 M275.001 135.601 C 275.136 135.821,275.411 136.000,275.612 136.000 C 275.812 136.000,276.961 136.450,278.165 137.001 C 281.444 138.501,282.485 138.862,282.199 138.399 C 282.064 138.179,281.789 138.000,281.588 138.000 C 281.388 138.000,280.239 137.550,279.035 136.999 C 275.756 135.499,274.715 135.138,275.001 135.601 M116.283 137.382 C 115.228 137.888,114.238 138.432,114.083 138.593 C 113.737 138.949,116.219 137.938,117.828 137.066 C 119.606 136.104,118.461 136.338,116.283 137.382 M235.058 139.704 C 234.128 142.140,234.280 142.604,235.236 140.247 C 235.672 139.173,235.958 138.224,235.872 138.138 C 235.786 138.052,235.420 138.757,235.058 139.704 M200.677 146.677 C 200.300 147.693,200.058 148.591,200.138 148.672 C 200.219 148.752,200.600 147.993,200.985 146.985 C 201.370 145.976,201.612 145.079,201.523 144.990 C 201.435 144.901,201.054 145.660,200.677 146.677 M231.880 148.080 C 231.276 149.639,230.846 150.980,230.926 151.060 C 231.006 151.140,231.570 149.934,232.180 148.380 C 232.790 146.826,233.219 145.485,233.134 145.400 C 233.049 145.315,232.484 146.521,231.880 148.080 M91.600 148.800 C 90.390 149.439,89.513 149.971,89.652 149.981 C 90.022 150.009,94.400 147.971,94.400 147.771 C 94.400 147.425,93.750 147.664,91.600 148.800 M302.800 147.789 C 302.800 148.106,305.700 149.233,305.928 149.005 C 306.041 148.892,306.035 148.800,305.916 148.800 C 305.796 148.800,305.046 148.528,304.249 148.195 C 303.452 147.862,302.800 147.679,302.800 147.789 M87.400 150.749 C 86.520 151.151,84.945 151.872,83.900 152.350 C 82.855 152.829,82.000 153.300,82.000 153.397 C 82.000 153.635,82.910 153.272,85.690 151.925 C 86.968 151.306,88.179 150.800,88.383 150.800 C 88.586 150.800,88.864 150.620,89.000 150.400 C 89.321 149.880,89.283 149.888,87.400 150.749 M310.200 151.109 C 310.420 151.313,311.410 151.791,312.400 152.170 C 313.390 152.550,314.020 152.695,313.800 152.491 C 313.580 152.287,312.590 151.809,311.600 151.430 C 310.610 151.050,309.980 150.905,310.200 151.109 M314.454 152.987 C 314.790 153.323,317.600 154.416,317.600 154.211 C 317.600 154.101,316.948 153.738,316.151 153.405 C 314.675 152.789,314.118 152.651,314.454 152.987 M318.054 154.587 C 318.390 154.923,321.200 156.016,321.200 155.811 C 321.200 155.701,320.548 155.338,319.751 155.005 C 318.275 154.389,317.718 154.251,318.054 154.587 M74.453 156.653 C 73.713 156.976,73.201 157.334,73.316 157.449 C 73.431 157.564,74.216 157.293,75.062 156.847 C 76.835 155.911,76.441 155.786,74.453 156.653 M341.600 164.995 C 341.600 165.205,344.335 166.411,344.749 166.383 C 345.070 166.362,342.301 164.839,341.900 164.817 C 341.735 164.808,341.600 164.888,341.600 164.995 M51.400 167.385 C 50.300 167.922,48.365 168.825,47.100 169.392 C 45.835 169.959,44.800 170.502,44.800 170.599 C 44.800 170.695,45.205 170.600,45.700 170.386 C 46.195 170.172,47.050 169.812,47.600 169.585 C 49.723 168.708,54.180 166.435,53.800 166.423 C 53.580 166.416,52.500 166.849,51.400 167.385 M346.800 167.400 C 347.350 167.714,347.980 167.972,348.200 167.972 C 348.420 167.972,348.150 167.714,347.600 167.400 C 347.050 167.086,346.420 166.828,346.200 166.828 C 345.980 166.828,346.250 167.086,346.800 167.400 M349.000 168.309 C 349.220 168.513,350.210 168.991,351.200 169.370 C 352.190 169.750,352.820 169.895,352.600 169.691 C 352.380 169.487,351.390 169.009,350.400 168.630 C 349.410 168.250,348.780 168.105,349.000 168.309 M353.254 170.187 C 353.590 170.523,356.400 171.616,356.400 171.411 C 356.400 171.301,355.748 170.938,354.951 170.605 C 353.475 169.989,352.918 169.851,353.254 170.187 M41.700 171.835 C 40.545 172.378,39.600 172.901,39.600 172.998 C 39.600 173.230,40.527 172.866,42.769 171.752 C 45.240 170.524,44.340 170.594,41.700 171.835 M296.800 180.214 C 296.800 180.493,299.706 181.631,300.091 181.503 C 300.282 181.439,299.620 181.084,298.619 180.713 C 297.619 180.342,296.800 180.117,296.800 180.214 M186.452 183.652 C 185.751 185.444,185.243 186.977,185.325 187.058 C 185.406 187.139,186.046 185.740,186.748 183.948 C 187.449 182.156,187.957 180.623,187.875 180.542 C 187.794 180.461,187.154 181.860,186.452 183.652 M98.600 181.578 C 97.720 181.995,97.180 182.336,97.400 182.338 C 97.946 182.342,101.102 180.864,100.600 180.840 C 100.380 180.830,99.480 181.162,98.600 181.578 M217.858 184.504 C 216.928 186.940,217.080 187.404,218.036 185.047 C 218.472 183.973,218.758 183.024,218.672 182.938 C 218.586 182.852,218.220 183.557,217.858 184.504 M384.200 184.000 C 385.520 184.634,386.780 185.151,387.000 185.149 C 387.220 185.147,386.320 184.623,385.000 183.985 C 383.680 183.347,382.420 182.830,382.200 182.836 C 381.980 182.842,382.880 183.366,384.200 184.000 M13.600 184.847 C 12.170 185.520,10.235 186.419,9.300 186.845 C 8.365 187.271,7.600 187.716,7.600 187.834 C 7.600 187.951,7.735 187.976,7.900 187.890 C 8.181 187.743,8.908 187.407,14.300 184.938 C 15.455 184.409,16.400 183.892,16.400 183.788 C 16.400 183.523,16.471 183.496,13.600 184.847 M91.000 184.672 C 88.443 185.741,87.550 186.298,89.200 185.794 C 90.606 185.366,94.284 183.665,93.800 183.668 C 93.580 183.669,92.320 184.121,91.000 184.672 M390.031 186.552 C 392.271 187.665,393.200 188.030,393.200 187.799 C 393.200 187.584,388.890 185.592,388.488 185.621 C 388.330 185.633,389.024 186.052,390.031 186.552 M5.558 188.532 C 3.082 189.644,3.200 188.930,3.200 202.787 C 3.200 216.794,3.050 215.965,5.800 217.172 C 8.740 218.464,9.772 218.849,9.400 218.516 C 9.180 218.319,8.010 217.726,6.800 217.198 C 5.590 216.670,4.373 216.070,4.095 215.865 C 3.702 215.576,3.613 212.635,3.695 202.652 L 3.800 189.810 5.600 188.929 C 7.453 188.021,7.418 187.698,5.558 188.532 M213.880 194.880 C 213.276 196.439,212.871 197.804,212.981 197.914 C 213.091 198.024,213.292 197.774,213.429 197.357 C 213.565 196.941,214.042 195.649,214.490 194.486 C 214.938 193.323,215.231 192.298,215.142 192.208 C 215.052 192.119,214.484 193.321,213.880 194.880 M54.928 199.526 C 52.909 200.342,51.109 201.158,50.928 201.339 C 50.748 201.519,51.500 201.310,52.600 200.875 C 53.700 200.439,55.410 199.767,56.400 199.381 C 57.922 198.788,59.384 197.952,58.780 198.020 C 58.681 198.031,56.948 198.709,54.928 199.526 M342.400 198.109 C 342.400 198.199,344.650 199.156,347.399 200.236 C 353.131 202.488,353.054 202.407,350.381 203.368 C 349.270 203.768,348.436 204.169,348.528 204.261 C 348.855 204.588,352.600 202.885,352.600 202.409 C 352.600 202.142,350.632 201.133,348.227 200.166 C 343.364 198.210,342.400 197.870,342.400 198.109 M47.378 202.835 C 47.037 203.387,47.527 203.843,48.800 204.157 L 49.800 204.404 48.800 203.924 C 47.386 203.244,47.356 203.199,48.012 202.784 C 48.371 202.557,48.414 202.410,48.124 202.406 C 47.862 202.403,47.526 202.596,47.378 202.835 M345.323 205.345 C 344.181 205.827,343.101 206.366,342.923 206.544 C 342.578 206.889,346.553 205.389,347.585 204.785 C 348.680 204.143,347.454 204.447,345.323 205.345 M52.800 205.766 C 53.350 206.060,54.250 206.412,54.800 206.549 C 55.350 206.686,55.080 206.452,54.200 206.029 C 52.390 205.158,51.268 204.948,52.800 205.766 M396.463 215.724 C 396.215 216.023,395.280 216.510,394.386 216.805 C 393.491 217.100,392.667 217.491,392.554 217.674 C 392.333 218.032,395.283 216.905,396.597 216.130 C 397.035 215.872,397.285 215.552,397.154 215.420 C 397.022 215.289,396.711 215.425,396.463 215.724 M79.633 216.565 C 79.783 216.714,82.352 217.764,88.200 220.069 C 89.300 220.503,90.020 220.691,89.800 220.488 C 89.110 219.850,79.021 215.958,79.633 216.565 M308.400 220.024 C 306.539 221.004,307.362 220.984,309.400 220.000 C 310.280 219.575,310.730 219.241,310.400 219.257 C 310.070 219.273,309.170 219.618,308.400 220.024 M12.800 220.400 C 13.570 220.822,14.380 221.166,14.600 221.166 C 14.820 221.166,14.370 220.822,13.600 220.400 C 12.830 219.978,12.020 219.634,11.800 219.634 C 11.580 219.634,12.030 219.978,12.800 220.400 M170.147 225.900 C 170.022 226.285,169.120 228.647,168.142 231.148 C 167.163 233.650,166.430 235.764,166.512 235.846 C 166.595 235.928,167.484 233.881,168.489 231.298 C 170.659 225.718,170.836 225.200,170.575 225.200 C 170.465 225.200,170.273 225.515,170.147 225.900 M201.064 228.307 C 200.479 229.799,200.009 231.195,200.021 231.410 C 200.032 231.624,200.579 230.472,201.236 228.849 C 201.894 227.226,202.363 225.830,202.280 225.747 C 202.197 225.663,201.649 226.816,201.064 228.307 M363.000 230.741 C 362.120 231.123,360.628 231.766,359.683 232.168 C 358.739 232.571,358.042 232.976,358.135 233.068 C 358.227 233.160,359.499 232.688,360.961 232.018 C 362.424 231.348,363.785 230.800,363.986 230.800 C 364.188 230.800,364.464 230.620,364.600 230.400 C 364.906 229.904,364.939 229.897,363.000 230.741 M36.000 230.965 C 36.000 231.167,40.368 233.208,40.748 233.184 C 41.082 233.163,38.998 232.042,37.328 231.344 C 36.598 231.039,36.000 230.868,36.000 230.965 M122.493 233.821 C 122.654 233.985,123.194 234.323,123.693 234.571 L 124.600 235.023 124.704 253.275 L 124.808 271.527 123.904 271.336 C 123.077 271.161,123.063 271.185,123.739 271.614 C 125.141 272.504,125.209 271.569,125.104 253.005 L 125.000 234.658 123.600 234.090 C 122.830 233.778,122.332 233.657,122.493 233.821 M353.800 234.800 C 352.480 235.434,351.580 235.958,351.800 235.964 C 352.020 235.970,353.280 235.453,354.600 234.815 C 355.920 234.177,356.820 233.653,356.600 233.651 C 356.380 233.649,355.120 234.166,353.800 234.800 M44.800 235.200 C 45.570 235.622,46.380 235.966,46.600 235.966 C 46.820 235.966,46.370 235.622,45.600 235.200 C 44.830 234.778,44.020 234.434,43.800 234.434 C 43.580 234.434,44.030 234.778,44.800 235.200 M270.594 253.195 C 270.600 271.073,270.614 271.392,271.400 271.531 C 272.146 271.662,272.153 271.636,271.501 271.136 C 270.858 270.642,270.794 269.194,270.695 252.800 L 270.587 235.000 270.594 253.195 M196.277 240.677 C 195.900 241.693,195.658 242.591,195.738 242.672 C 195.819 242.752,196.200 241.993,196.585 240.985 C 196.970 239.976,197.212 239.079,197.123 238.990 C 197.035 238.901,196.654 239.660,196.277 240.677 M68.000 245.783 C 68.000 246.008,72.282 248.008,72.712 247.984 C 72.870 247.975,72.473 247.682,71.828 247.334 C 70.157 246.429,68.000 245.555,68.000 245.783 M327.800 246.378 C 326.920 246.795,326.313 247.150,326.451 247.168 C 326.840 247.218,329.600 246.014,329.600 245.795 C 329.600 245.527,329.599 245.527,327.800 246.378 M73.200 248.196 C 73.200 248.290,74.415 248.933,75.900 249.625 C 79.636 251.364,80.496 251.679,80.199 251.199 C 80.064 250.979,79.786 250.800,79.583 250.800 C 79.379 250.800,78.168 250.294,76.890 249.675 C 74.129 248.337,73.200 247.965,73.200 248.196 M322.301 248.765 C 321.476 249.150,320.666 249.604,320.501 249.775 C 320.170 250.115,322.776 249.086,323.896 248.434 C 325.028 247.775,323.935 248.002,322.301 248.765 M318.093 250.580 C 316.847 251.268,316.456 251.706,317.412 251.343 C 318.903 250.775,320.199 250.005,319.600 250.042 C 319.270 250.062,318.592 250.304,318.093 250.580 M81.772 252.266 C 83.389 253.142,85.600 254.048,85.600 253.835 C 85.600 253.633,81.232 251.592,80.852 251.616 C 80.713 251.625,81.127 251.918,81.772 252.266 M106.800 263.789 C 106.800 264.106,109.700 265.233,109.928 265.005 C 110.041 264.892,110.035 264.800,109.916 264.800 C 109.796 264.800,109.046 264.528,108.249 264.195 C 107.452 263.862,106.800 263.679,106.800 263.789 M154.664 266.307 C 154.079 267.799,153.609 269.195,153.621 269.410 C 153.632 269.624,154.179 268.472,154.836 266.849 C 155.494 265.226,155.963 263.830,155.880 263.747 C 155.797 263.663,155.249 264.816,154.664 266.307 M287.400 264.341 C 286.520 264.723,285.028 265.366,284.083 265.768 C 283.139 266.171,282.442 266.576,282.535 266.668 C 282.627 266.760,283.899 266.288,285.361 265.618 C 286.824 264.948,288.185 264.400,288.386 264.400 C 288.588 264.400,288.864 264.220,289.000 264.000 C 289.306 263.504,289.339 263.497,287.400 264.341 M112.000 266.165 C 112.000 266.367,116.368 268.408,116.748 268.384 C 117.082 268.363,114.998 267.242,113.328 266.544 C 112.598 266.239,112.000 266.068,112.000 266.165 M279.300 267.834 C 278.585 268.146,278.000 268.494,278.000 268.607 C 278.000 268.815,280.806 267.727,281.146 267.387 C 281.486 267.047,280.620 267.257,279.300 267.834 M184.061 272.727 C 183.332 274.637,182.586 276.560,182.404 277.000 C 181.737 278.609,181.611 279.240,182.005 278.997 C 182.222 278.863,182.400 278.491,182.400 278.171 C 182.400 277.851,182.566 277.277,182.769 276.895 C 183.478 275.560,185.701 269.568,185.545 269.412 C 185.459 269.325,184.791 270.817,184.061 272.727 M150.850 276.250 C 150.373 277.496,150.050 278.584,150.133 278.666 C 150.215 278.749,150.673 277.796,151.150 276.550 C 151.627 275.304,151.950 274.216,151.867 274.134 C 151.785 274.051,151.327 275.004,150.850 276.250 M147.800 284.000 C 147.650 284.473,147.617 284.950,147.727 285.060 C 147.837 285.170,148.050 284.873,148.200 284.400 C 148.350 283.927,148.383 283.450,148.273 283.340 C 148.163 283.230,147.950 283.527,147.800 284.000 M137.244 311.646 C 136.557 313.616,136.431 313.600,152.984 313.600 L 168.722 313.600 169.140 312.400 C 169.644 310.956,169.341 310.778,168.800 312.200 L 168.420 313.200 152.783 313.200 L 137.146 313.200 137.428 312.300 C 137.583 311.805,137.794 311.175,137.898 310.900 C 138.001 310.625,137.994 310.400,137.882 310.400 C 137.770 310.400,137.483 310.961,137.244 311.646 " stroke="none" fill="#2f564f" fill-rule="evenodd"></path><path id="path3" d="M224.100 87.465 C 223.825 87.576,223.600 87.868,223.600 88.113 C 223.600 88.424,223.746 88.414,224.080 88.080 C 224.436 87.724,228.419 87.600,239.523 87.600 L 254.487 87.600 254.238 88.700 C 254.030 89.618,254.062 89.680,254.428 89.076 C 255.554 87.217,255.397 87.198,239.513 87.232 C 231.311 87.249,224.375 87.354,224.100 87.465 M216.258 107.304 C 215.328 109.740,215.480 110.204,216.436 107.847 C 216.872 106.773,217.158 105.824,217.072 105.738 C 216.986 105.652,216.620 106.357,216.258 107.304 M211.480 119.680 C 210.876 121.239,210.446 122.580,210.526 122.660 C 210.606 122.740,211.170 121.534,211.780 119.980 C 212.390 118.426,212.819 117.085,212.734 117.000 C 212.649 116.915,212.084 118.121,211.480 119.680 M238.277 130.277 C 237.900 131.293,237.658 132.191,237.738 132.272 C 237.819 132.352,238.200 131.593,238.585 130.585 C 238.970 129.576,239.212 128.679,239.123 128.590 C 239.035 128.501,238.654 129.260,238.277 130.277 M123.023 134.763 C 122.900 134.962,123.159 135.031,123.599 134.916 C 124.772 134.609,124.872 170.086,123.700 170.768 C 123.315 170.992,123.189 171.181,123.420 171.188 C 124.735 171.226,124.800 170.339,124.800 152.320 C 124.800 134.848,124.781 134.400,124.024 134.400 C 123.597 134.400,123.146 134.563,123.023 134.763 M270.983 134.900 C 270.877 135.175,270.838 143.050,270.896 152.400 L 271.000 169.400 271.200 151.900 C 271.310 142.275,271.349 134.400,271.287 134.400 C 271.226 134.400,271.089 134.625,270.983 134.900 M292.000 143.401 C 292.000 143.673,296.477 145.656,296.666 145.467 C 296.758 145.375,296.061 144.970,295.117 144.567 C 294.172 144.164,293.085 143.697,292.700 143.530 C 292.315 143.363,292.000 143.305,292.000 143.401 M101.400 144.749 C 100.520 145.151,98.945 145.872,97.900 146.350 C 96.855 146.829,96.000 147.300,96.000 147.397 C 96.000 147.635,96.910 147.272,99.690 145.925 C 100.968 145.306,102.179 144.800,102.383 144.800 C 102.586 144.800,102.864 144.620,103.000 144.400 C 103.321 143.880,103.283 143.888,101.400 144.749 M298.054 146.187 C 298.390 146.523,301.200 147.616,301.200 147.411 C 301.200 147.301,300.548 146.938,299.751 146.605 C 298.275 145.989,297.718 145.851,298.054 146.187 M93.700 148.234 C 92.985 148.546,92.400 148.894,92.400 149.007 C 92.400 149.215,95.206 148.127,95.546 147.787 C 95.886 147.447,95.020 147.657,93.700 148.234 M197.064 157.107 C 196.479 158.599,196.009 159.995,196.021 160.210 C 196.032 160.424,196.579 159.272,197.236 157.649 C 197.894 156.026,198.363 154.630,198.280 154.547 C 198.197 154.463,197.649 155.616,197.064 157.107 M69.400 159.578 C 68.520 159.995,67.913 160.350,68.051 160.368 C 68.440 160.418,71.200 159.214,71.200 158.995 C 71.200 158.727,71.199 158.727,69.400 159.578 M64.200 161.978 C 63.320 162.395,62.713 162.750,62.851 162.768 C 63.240 162.818,66.000 161.614,66.000 161.395 C 66.000 161.127,65.999 161.127,64.200 161.978 M59.269 164.210 C 57.657 164.974,56.182 165.600,55.992 165.600 C 55.803 165.600,55.536 165.779,55.401 165.999 C 55.104 166.479,55.964 166.164,59.700 164.425 C 61.185 163.733,62.400 163.085,62.400 162.984 C 62.400 162.719,62.467 162.692,59.269 164.210 M336.854 163.387 C 337.190 163.723,340.000 164.816,340.000 164.611 C 340.000 164.501,339.348 164.138,338.551 163.805 C 337.075 163.189,336.518 163.051,336.854 163.387 M340.454 164.987 C 340.790 165.323,343.600 166.416,343.600 166.211 C 343.600 166.101,342.948 165.738,342.151 165.405 C 340.675 164.789,340.118 164.651,340.454 164.987 M273.200 170.500 C 273.511 170.855,283.680 174.853,283.847 174.686 C 283.929 174.605,281.881 173.704,279.298 172.683 C 273.711 170.477,272.936 170.200,273.200 170.500 M120.933 171.922 C 120.016 172.295,119.116 172.751,118.933 172.936 C 118.512 173.360,122.066 171.999,122.580 171.540 C 123.093 171.081,122.880 171.131,120.933 171.922 M37.200 174.400 C 36.430 174.822,35.913 175.174,36.051 175.183 C 36.465 175.211,39.200 174.005,39.200 173.795 C 39.200 173.446,38.625 173.620,37.200 174.400 M220.277 177.077 C 219.900 178.093,219.658 178.991,219.738 179.072 C 219.819 179.152,220.200 178.393,220.585 177.385 C 220.970 176.376,221.212 175.479,221.123 175.390 C 221.035 175.301,220.654 176.060,220.277 177.077 M27.000 179.178 C 26.120 179.595,25.513 179.950,25.651 179.968 C 26.040 180.018,28.800 178.814,28.800 178.595 C 28.800 178.327,28.799 178.327,27.000 179.178 M371.400 178.709 C 371.620 178.913,372.610 179.391,373.600 179.770 C 374.590 180.150,375.220 180.295,375.000 180.091 C 374.780 179.887,373.790 179.409,372.800 179.030 C 371.810 178.650,371.180 178.505,371.400 178.709 M20.400 182.200 C 19.410 182.730,18.780 183.164,19.000 183.164 C 19.220 183.164,20.210 182.730,21.200 182.200 C 22.190 181.670,22.820 181.236,22.600 181.236 C 22.380 181.236,21.390 181.670,20.400 182.200 M379.254 182.187 C 379.590 182.523,382.400 183.616,382.400 183.411 C 382.400 183.301,381.748 182.938,380.951 182.605 C 379.475 181.989,378.918 181.851,379.254 182.187 M14.400 185.000 C 13.850 185.314,13.580 185.572,13.800 185.572 C 14.020 185.572,14.650 185.314,15.200 185.000 C 15.750 184.686,16.020 184.428,15.800 184.428 C 15.580 184.428,14.950 184.686,14.400 185.000 M81.700 188.012 C 80.361 188.551,80.611 188.824,82.000 188.340 C 82.660 188.110,83.200 187.849,83.200 187.761 C 83.200 187.524,82.713 187.605,81.700 188.012 M4.270 189.700 C 3.647 190.156,3.597 191.305,3.700 202.800 L 3.812 215.400 3.906 202.761 L 4.000 190.122 4.900 189.688 C 5.395 189.449,5.609 189.242,5.376 189.227 C 5.144 189.212,4.646 189.425,4.270 189.700 M74.200 191.229 C 73.320 191.652,73.050 191.886,73.600 191.749 C 74.733 191.467,76.812 190.425,76.200 190.446 C 75.980 190.453,75.080 190.806,74.200 191.229 M180.050 201.450 C 179.573 202.696,179.250 203.784,179.333 203.866 C 179.415 203.949,179.873 202.996,180.350 201.750 C 180.827 200.504,181.150 199.416,181.067 199.334 C 180.985 199.251,180.527 200.204,180.050 201.450 M352.971 202.400 C 352.971 202.840,353.113 203.200,353.286 203.200 C 353.459 203.200,353.600 202.840,353.600 202.400 C 353.600 201.960,353.459 201.600,353.286 201.600 C 353.113 201.600,352.971 201.960,352.971 202.400 M46.471 203.067 C 46.542 203.434,46.870 203.807,47.200 203.897 C 47.693 204.032,47.702 203.992,47.249 203.675 C 46.946 203.463,46.821 203.089,46.972 202.845 C 47.124 202.600,47.043 202.400,46.794 202.400 C 46.545 202.400,46.400 202.700,46.471 203.067 M207.064 211.507 C 206.479 212.999,206.009 214.395,206.021 214.610 C 206.032 214.824,206.579 213.672,207.236 212.049 C 207.894 210.426,208.363 209.030,208.280 208.947 C 208.197 208.863,207.649 210.016,207.064 211.507 M64.200 210.712 C 64.727 211.200,74.051 214.882,74.251 214.682 C 74.336 214.597,73.010 213.977,71.303 213.305 C 69.596 212.633,67.210 211.691,66.000 211.213 C 64.790 210.734,63.980 210.509,64.200 210.712 M322.704 214.708 C 319.681 215.936,317.273 217.007,317.354 217.088 C 317.435 217.169,320.179 216.156,323.451 214.837 C 326.723 213.518,329.130 212.448,328.800 212.458 C 328.470 212.468,325.727 213.481,322.704 214.708 M16.000 221.400 C 16.550 221.714,17.180 221.972,17.400 221.972 C 17.620 221.972,17.350 221.714,16.800 221.400 C 16.250 221.086,15.620 220.828,15.400 220.828 C 15.180 220.828,15.450 221.086,16.000 221.400 M381.800 221.978 C 380.920 222.395,380.313 222.750,380.451 222.768 C 380.840 222.818,383.600 221.614,383.600 221.395 C 383.600 221.127,383.599 221.127,381.800 221.978 M21.600 224.000 C 22.370 224.422,23.180 224.766,23.400 224.766 C 23.620 224.766,23.170 224.422,22.400 224.000 C 21.630 223.578,20.820 223.234,20.600 223.234 C 20.380 223.234,20.830 223.578,21.600 224.000 M285.096 229.687 C 283.389 230.368,282.062 230.996,282.148 231.081 C 282.339 231.272,287.657 229.209,288.180 228.740 C 288.722 228.255,288.549 228.308,285.096 229.687 M112.400 230.231 C 112.400 230.501,114.478 231.256,114.676 231.057 C 114.767 230.967,114.292 230.701,113.620 230.467 C 112.949 230.233,112.400 230.127,112.400 230.231 M118.000 232.566 C 118.550 232.860,119.450 233.212,120.000 233.349 C 120.550 233.486,120.280 233.252,119.400 232.829 C 117.590 231.958,116.468 231.748,118.000 232.566 M123.700 234.832 C 124.782 235.462,124.782 270.642,123.700 270.924 C 123.173 271.062,123.223 271.119,123.900 271.154 L 124.800 271.200 124.800 253.280 C 124.800 235.261,124.735 234.374,123.420 234.412 C 123.189 234.419,123.315 234.608,123.700 234.832 M270.983 235.700 C 270.425 237.156,271.013 270.937,271.600 271.097 C 272.053 271.221,272.075 271.173,271.692 270.902 C 271.291 270.618,271.206 266.805,271.292 252.871 C 271.351 243.152,271.349 235.200,271.287 235.200 C 271.226 235.200,271.089 235.425,270.983 235.700 M350.200 235.978 C 349.320 236.395,348.713 236.750,348.851 236.768 C 349.240 236.818,352.000 235.614,352.000 235.395 C 352.000 235.127,351.999 235.127,350.200 235.978 M48.000 236.200 C 48.550 236.514,49.180 236.772,49.400 236.772 C 49.620 236.772,49.350 236.514,48.800 236.200 C 48.250 235.886,47.620 235.628,47.400 235.628 C 47.180 235.628,47.450 235.886,48.000 236.200 M165.864 238.307 C 165.279 239.799,164.809 241.195,164.821 241.410 C 164.832 241.624,165.379 240.472,166.036 238.849 C 166.694 237.226,167.163 235.830,167.080 235.747 C 166.997 235.663,166.449 236.816,165.864 238.307 M53.372 238.666 C 54.989 239.542,57.200 240.448,57.200 240.235 C 57.200 240.033,52.832 237.992,52.452 238.016 C 52.313 238.025,52.727 238.318,53.372 238.666 M340.500 240.234 C 339.785 240.546,339.200 240.894,339.200 241.007 C 339.200 241.215,342.006 240.127,342.346 239.787 C 342.686 239.447,341.820 239.657,340.500 240.234 M59.254 241.387 C 59.590 241.723,62.400 242.816,62.400 242.611 C 62.400 242.501,61.748 242.138,60.951 241.805 C 59.475 241.189,58.918 241.051,59.254 241.387 M161.480 249.680 C 160.876 251.239,160.446 252.580,160.526 252.660 C 160.606 252.740,161.170 251.534,161.780 249.980 C 162.390 248.426,162.819 247.085,162.734 247.000 C 162.649 246.915,162.084 248.121,161.480 249.680 M79.600 250.800 C 80.370 251.222,81.180 251.566,81.400 251.566 C 81.620 251.566,81.170 251.222,80.400 250.800 C 79.630 250.378,78.820 250.034,78.600 250.034 C 78.380 250.034,78.830 250.378,79.600 250.800 M83.600 252.589 C 83.600 252.906,86.500 254.033,86.728 253.805 C 86.841 253.692,86.835 253.600,86.716 253.600 C 86.596 253.600,85.846 253.328,85.049 252.995 C 84.252 252.662,83.600 252.479,83.600 252.589 M190.258 255.304 C 189.328 257.740,189.480 258.204,190.436 255.847 C 190.872 254.773,191.158 253.824,191.072 253.738 C 190.986 253.652,190.620 254.357,190.258 255.304 M87.200 254.158 C 87.200 254.270,87.875 254.671,88.700 255.048 C 89.525 255.426,90.335 255.805,90.500 255.891 C 90.665 255.977,90.800 255.955,90.800 255.842 C 90.800 255.730,90.125 255.329,89.300 254.952 C 88.475 254.574,87.665 254.195,87.500 254.109 C 87.335 254.023,87.200 254.045,87.200 254.158 M305.600 255.800 C 305.050 256.114,304.780 256.372,305.000 256.372 C 305.220 256.372,305.850 256.114,306.400 255.800 C 306.950 255.486,307.220 255.228,307.000 255.228 C 306.780 255.228,306.150 255.486,305.600 255.800 M92.000 256.600 C 92.550 256.914,93.180 257.172,93.400 257.172 C 93.620 257.172,93.350 256.914,92.800 256.600 C 92.250 256.286,91.620 256.028,91.400 256.028 C 91.180 256.028,91.450 256.286,92.000 256.600 M301.700 257.434 C 300.985 257.746,300.400 258.094,300.400 258.207 C 300.400 258.415,303.206 257.327,303.546 256.987 C 303.886 256.647,303.020 256.857,301.700 257.434 M298.100 259.034 C 297.385 259.346,296.800 259.694,296.800 259.807 C 296.800 260.015,299.606 258.927,299.946 258.587 C 300.286 258.247,299.420 258.457,298.100 259.034 M185.877 266.677 C 185.500 267.693,185.258 268.591,185.338 268.672 C 185.419 268.752,185.800 267.993,186.185 266.985 C 186.570 265.976,186.812 265.079,186.723 264.990 C 186.635 264.901,186.254 265.660,185.877 266.677 M274.000 269.800 C 273.450 270.114,273.180 270.372,273.400 270.372 C 273.620 270.372,274.250 270.114,274.800 269.800 C 275.350 269.486,275.620 269.228,275.400 269.228 C 275.180 269.228,274.550 269.486,274.000 269.800 M143.877 295.477 C 143.500 296.493,143.258 297.391,143.338 297.472 C 143.419 297.552,143.800 296.793,144.185 295.785 C 144.570 294.776,144.812 293.879,144.723 293.790 C 144.635 293.701,144.254 294.460,143.877 295.477 M171.864 303.107 C 171.279 304.599,170.809 305.995,170.821 306.210 C 170.832 306.424,171.379 305.272,172.036 303.649 C 172.694 302.026,173.163 300.630,173.080 300.547 C 172.997 300.463,172.449 301.616,171.864 303.107 M168.400 312.333 C 168.400 312.679,164.389 312.825,152.900 312.895 L 137.400 312.990 152.775 313.100 C 167.222 313.203,169.593 313.060,168.673 312.140 C 168.523 311.990,168.400 312.077,168.400 312.333 " stroke="none" fill="#4d857c" fill-rule="evenodd"></path><path id="path4" d="M396.978 202.600 C 396.979 209.640,397.033 212.464,397.099 208.875 C 397.166 205.286,397.166 199.526,397.099 196.075 C 397.033 192.624,396.978 195.560,396.978 202.600 " stroke="none" fill="#467c74" fill-rule="evenodd"></path></g></svg>